<svg width="187" height="42" viewBox="0 0 187 42" fill="none" xmlns="http://www.w3.org/2000/svg">
<path d="M2.916 34V7.972H10.548L16.506 26.53L22.518 7.972H30.132V34H24.822V14.092L18.558 34H14.436L8.208 14.182V34H2.916ZM42.6589 34.36C41.3509 34.36 40.1029 34.15 38.9149 33.73C37.7269 33.298 36.7129 32.626 35.8729 31.714C35.0329 30.802 34.5049 29.608 34.2889 28.132H38.8429C39.0709 29.128 39.5749 29.818 40.3549 30.202C41.1469 30.574 41.9029 30.76 42.6229 30.76C43.6309 30.76 44.4409 30.604 45.0529 30.292C45.6769 29.968 45.9889 29.476 45.9889 28.816C45.9889 28.312 45.8029 27.91 45.4309 27.61C45.0709 27.31 44.4709 27.082 43.6309 26.926L40.3549 26.242C38.7109 25.894 37.3849 25.306 36.3769 24.478C35.3809 23.638 34.8769 22.45 34.8649 20.914C34.8529 19.234 35.5129 17.836 36.8449 16.72C38.1889 15.592 40.1329 15.028 42.6769 15.028C44.9689 15.028 46.7989 15.538 48.1669 16.558C49.5469 17.566 50.2489 18.982 50.2729 20.806H45.8809C45.7489 20.086 45.3889 19.534 44.8009 19.15C44.2249 18.754 43.4989 18.556 42.6229 18.556C41.7109 18.556 40.9609 18.718 40.3729 19.042C39.7849 19.366 39.4909 19.858 39.4909 20.518C39.4909 21.01 39.7309 21.4 40.2109 21.688C40.6909 21.964 41.4349 22.204 42.4429 22.408L45.4669 23.092C46.8469 23.428 47.8969 23.92 48.6169 24.568C49.3489 25.216 49.8409 25.9 50.0929 26.62C50.3569 27.328 50.4889 27.964 50.4889 28.528C50.4889 30.388 49.7629 31.828 48.3109 32.848C46.8589 33.856 44.9749 34.36 42.6589 34.36ZM59.7164 34.36C57.9284 34.36 56.4344 33.868 55.2344 32.884C54.0344 31.9 53.4344 30.496 53.4344 28.672C53.4344 26.632 54.1904 25.084 55.7024 24.028C57.2264 22.96 59.6384 22.408 62.9384 22.372L65.2604 22.336V21.22C65.2604 20.368 65.0084 19.714 64.5044 19.258C64.0124 18.79 63.2444 18.562 62.2004 18.574C61.4324 18.586 60.7004 18.766 60.0044 19.114C59.3204 19.462 58.8524 20.068 58.6004 20.932H54.2264C54.3224 18.916 55.1324 17.428 56.6564 16.468C58.1804 15.508 60.1064 15.028 62.4344 15.028C65.2904 15.028 67.3124 15.556 68.5004 16.612C69.7004 17.656 70.3004 19.09 70.3004 20.914V34H65.9084L65.4764 30.796C64.8404 32.14 64.0424 33.07 63.0824 33.586C62.1344 34.102 61.0124 34.36 59.7164 34.36ZM61.4804 30.904C62.1164 30.904 62.7224 30.76 63.2984 30.472C63.8744 30.172 64.3424 29.788 64.7024 29.32C65.0744 28.84 65.2604 28.33 65.2604 27.79V25.036L63.3704 25.072C62.4944 25.084 61.6784 25.186 60.9224 25.378C60.1664 25.57 59.5544 25.894 59.0864 26.35C58.6304 26.794 58.4024 27.394 58.4024 28.15C58.4024 29.014 58.6964 29.692 59.2844 30.184C59.8844 30.664 60.6164 30.904 61.4804 30.904ZM80.8931 34.324C79.5131 34.324 78.4211 34.162 77.6171 33.838C76.8251 33.514 76.2371 33.088 75.8531 32.56C75.4691 32.02 75.2231 31.426 75.1151 30.778C75.0071 30.118 74.9531 29.452 74.9531 28.78V7.252H80.1011V28.132C80.1011 28.816 80.2511 29.374 80.5511 29.806C80.8511 30.238 81.4031 30.496 82.2071 30.58L83.0891 30.634V33.874C82.7291 34.006 82.3571 34.114 81.9731 34.198C81.6011 34.282 81.2411 34.324 80.8931 34.324ZM97.4062 34.36C95.1142 34.36 93.1402 33.838 91.4842 32.794C89.8402 31.75 88.5742 30.238 87.6862 28.258C86.7982 26.266 86.3542 23.866 86.3542 21.058C86.3542 18.226 86.8102 15.808 87.7222 13.804C88.6342 11.8 89.9242 10.27 91.5922 9.214C93.2722 8.146 95.2582 7.612 97.5502 7.612C98.8582 7.612 100.088 7.84 101.24 8.296C102.392 8.752 103.412 9.376 104.3 10.168C105.188 10.96 105.896 11.86 106.424 12.868C106.964 13.864 107.27 14.908 107.342 16H103.778C103.61 15.04 103.238 14.146 102.662 13.318C102.086 12.49 101.354 11.824 100.466 11.32C99.5902 10.816 98.6002 10.564 97.4962 10.564C95.2522 10.564 93.4342 11.404 92.0422 13.084C90.6502 14.764 89.9542 17.398 89.9542 20.986C89.9542 23.458 90.2842 25.456 90.9442 26.98C91.6162 28.504 92.5282 29.614 93.6802 30.31C94.8322 31.006 96.1342 31.354 97.5862 31.354C99.0382 31.354 100.244 31.03 101.204 30.382C102.164 29.734 102.89 28.942 103.382 28.006C103.886 27.07 104.156 26.17 104.192 25.306L104.3 23.002H97.9642V20.554L107.756 20.572V34H105.254V30.04C104.798 30.784 104.216 31.486 103.508 32.146C102.812 32.806 101.96 33.34 100.952 33.748C99.9562 34.156 98.7742 34.36 97.4062 34.36ZM113.567 34V15.388H116.735V18.97C117.203 17.638 117.941 16.648 118.949 16C119.969 15.352 121.067 15.028 122.243 15.028C122.519 15.028 122.783 15.046 123.035 15.082C123.299 15.118 123.509 15.178 123.665 15.262V18.484C123.485 18.4 123.251 18.346 122.963 18.322C122.687 18.286 122.453 18.268 122.261 18.268C120.785 18.172 119.519 18.454 118.463 19.114C117.407 19.774 116.879 20.878 116.879 22.426V34H113.567ZM134.5 34.36C131.92 34.36 129.85 33.538 128.29 31.894C126.73 30.25 125.95 27.874 125.95 24.766C125.95 22.822 126.28 21.118 126.94 19.654C127.6 18.19 128.566 17.056 129.838 16.252C131.11 15.436 132.664 15.028 134.5 15.028C137.068 15.028 139.12 15.868 140.656 17.548C142.192 19.228 142.96 21.634 142.96 24.766C142.96 26.662 142.636 28.33 141.988 29.77C141.352 31.21 140.404 32.338 139.144 33.154C137.896 33.958 136.348 34.36 134.5 34.36ZM134.5 31.732C136.168 31.732 137.446 31.108 138.334 29.86C139.222 28.6 139.666 26.878 139.666 24.694C139.666 23.362 139.486 22.168 139.126 21.112C138.778 20.044 138.226 19.198 137.47 18.574C136.714 17.95 135.724 17.638 134.5 17.638C132.808 17.638 131.512 18.262 130.612 19.51C129.712 20.746 129.262 22.474 129.262 24.694C129.262 26.002 129.442 27.19 129.802 28.258C130.162 29.326 130.726 30.172 131.494 30.796C132.262 31.42 133.264 31.732 134.5 31.732ZM153.84 34.36C152.544 34.348 151.356 34.108 150.276 33.64C149.196 33.16 148.326 32.452 147.666 31.516C147.018 30.58 146.694 29.416 146.694 28.024V15.388H150.024V27.682C150.024 28.894 150.396 29.878 151.14 30.634C151.896 31.39 153.03 31.768 154.542 31.768C155.91 31.768 157.008 31.414 157.836 30.706C158.676 29.986 159.096 28.918 159.096 27.502V15.388H162.408V34H159.762L159.42 30.436C159.084 31.84 158.4 32.848 157.368 33.46C156.336 34.072 155.16 34.372 153.84 34.36ZM167.848 39.796V15.388H171.16L171.196 18.628C171.484 18.124 171.886 17.596 172.402 17.044C172.93 16.48 173.596 16.006 174.4 15.622C175.204 15.226 176.176 15.028 177.316 15.028C179.536 15.028 181.348 15.796 182.752 17.332C184.156 18.868 184.858 21.238 184.858 24.442C184.858 27.634 184.168 30.088 182.788 31.804C181.408 33.508 179.494 34.36 177.046 34.36C175.942 34.36 175 34.162 174.22 33.766C173.452 33.358 172.822 32.866 172.33 32.29C171.838 31.714 171.46 31.162 171.196 30.634V39.796H167.848ZM176.416 31.768C177.952 31.768 179.206 31.186 180.178 30.022C181.15 28.846 181.636 27.022 181.636 24.55C181.636 22.438 181.192 20.758 180.304 19.51C179.416 18.25 178.12 17.62 176.416 17.62C174.688 17.62 173.38 18.262 172.492 19.546C171.604 20.83 171.16 22.498 171.16 24.55C171.16 25.882 171.358 27.094 171.754 28.186C172.15 29.278 172.738 30.148 173.518 30.796C174.298 31.444 175.264 31.768 176.416 31.768Z" fill="#22668A"/>
</svg>
