<svg width="348" height="215" viewBox="0 0 348 215" fill="none" xmlns="http://www.w3.org/2000/svg">
<g clip-path="url(#clip0_6_2)">
<path d="M194.943 213.072C190.364 213.067 185.896 214.484 182.155 217.129H207.713C203.977 214.487 199.515 213.07 194.943 213.072Z" fill="#E6E6E6"/>
<path d="M366.947 187.398C365.804 166.627 349.146 149.692 328.431 148.272C318.882 147.6 309.394 150.255 301.575 155.788C293.756 161.321 288.086 169.391 285.526 178.632C285.023 178.614 284.521 178.594 284.014 178.594C275.048 178.596 266.324 181.506 259.147 186.889C251.969 192.272 246.724 199.838 244.197 208.456C238.256 205.841 231.617 205.273 225.319 206.843C219.022 208.412 213.422 212.03 209.396 217.129H338.845C354.748 217.129 367.625 203.931 366.977 188.011C366.968 187.807 366.958 187.603 366.947 187.398Z" fill="#E6E6E6"/>
<path d="M83.8618 109.388L83.5977 109.968C83.0448 109.658 82.5854 109.225 82.2617 108.708L83.2103 108.597L83.8618 109.388Z" fill="#F2F2F2"/>
<path d="M86.6415 109.869L86.4052 110.39C86.1327 110.447 85.8541 110.476 85.5747 110.475C85.29 110.475 85.0062 110.446 84.7287 110.387L84.508 110.119L84.9233 109.203L85.99 109.078L86.6415 109.869Z" fill="#F2F2F2"/>
<path d="M89.178 108.129C88.9653 108.678 88.6098 109.17 88.1425 109.563L87.809 109.157L88.2242 108.241L89.178 108.129Z" fill="#F2F2F2"/>
<path d="M141.769 51.1495L128.02 58.4773L147.572 89.7376L161.321 82.4098L141.769 51.1495Z" fill="#3F3D56"/>
<path d="M144.197 58.7165L133.256 64.7673L133.407 65L144.348 58.9492L144.197 58.7165Z" fill="#6C63FF"/>
<path d="M145.938 60.96L134.997 67.0109L135.148 67.2436L146.089 61.1927L145.938 60.96Z" fill="#6C63FF"/>
<path d="M147.114 62.8599L136.173 68.9107L136.324 69.1434L147.265 63.0926L147.114 62.8599Z" fill="#6C63FF"/>
<path d="M148.878 65.3025L137.937 71.3533L138.088 71.586L149.029 65.5352L148.878 65.3025Z" fill="#6C63FF"/>
<path d="M151.524 68.8307L140.583 74.8816L140.734 75.1143L151.675 69.0634L151.524 68.8307Z" fill="#6C63FF"/>
<path d="M191.638 90.7557C191.638 90.7557 199.206 87.3956 204.591 88.648L191.638 56.3989V53.0874L209.973 93.3576C214.557 101.334 220.352 119.514 210.471 120.973C199.261 122.629 179.082 128.838 179.082 128.838L174.598 92.8254L191.638 90.7557Z" fill="#2F2E41"/>
<path d="M147.468 79.9933C147.468 79.9933 135.361 65.9195 132.222 70.8867C129.083 75.8539 146.319 84.2093 146.319 84.2093L147.468 79.9933Z" fill="#FFB9B9"/>
<path d="M151.504 80.4073L146.571 77.9236C146.571 77.9236 143.433 85.3745 143.433 86.6163C143.433 87.8581 148.365 88.2721 148.365 88.2721L151.504 80.4073Z" fill="#D0CDE1"/>
<path d="M170.338 48.948C176.777 48.948 181.997 44.1295 181.997 38.1856C181.997 32.2418 176.777 27.4233 170.338 27.4233C163.899 27.4233 158.679 32.2418 158.679 38.1856C158.679 44.1295 163.899 48.948 170.338 48.948Z" fill="#FFB9B9"/>
<path d="M179.306 36.9438C179.306 36.9438 184.239 50.6038 187.826 51.4316C191.413 52.2595 173.925 58.4686 173.925 58.4686C173.925 58.4686 168.544 46.8783 165.853 43.9808C163.163 41.0832 179.306 36.9438 179.306 36.9438Z" fill="#FFB9B9"/>
<path opacity="0.1" d="M207.332 116.834C216.998 115.406 211.663 97.9788 207.135 89.7534C207.545 90.0422 207.913 90.3791 208.229 90.7557C212.713 96.1369 221.682 119.317 210.471 120.973C199.261 122.629 179.082 128.838 179.082 128.838L178.472 123.938C184.238 122.23 198.541 118.132 207.332 116.834Z" fill="black"/>
<path d="M222.803 188.031C222.803 188.031 234.013 196.31 233.116 197.137C232.219 197.965 222.803 211.211 214.731 212.453C206.66 213.695 203.072 213.695 203.072 212.453C203.072 211.211 205.314 208.314 209.35 207.072C213.386 205.83 213.834 197.551 213.386 195.896C212.937 194.24 222.803 188.031 222.803 188.031Z" fill="#2F2E41"/>
<path d="M189.171 126.354L196.346 157.4C196.346 157.4 225.942 188.031 225.045 188.445C224.148 188.859 215.18 197.137 213.386 197.137C211.592 197.137 180.651 164.85 180.651 164.85L169.441 137.944L189.171 126.354Z" fill="#2F2E41"/>
<path opacity="0.1" d="M189.171 126.354L196.346 157.4C196.346 157.4 225.942 188.031 225.045 188.445C224.148 188.859 215.18 197.137 213.386 197.137C211.592 197.137 180.651 164.85 180.651 164.85L169.441 137.944L189.171 126.354Z" fill="black"/>
<path d="M196.346 116.42C196.346 116.42 192.759 130.494 182.893 140.014C173.028 149.535 168.544 168.99 168.544 168.99L158.679 207.9C158.679 207.9 141.19 205.83 142.087 201.691L151.504 167.334C151.504 167.334 162.266 119.731 168.096 116.42C173.925 113.108 196.346 116.42 196.346 116.42Z" fill="#2F2E41"/>
<path d="M157.782 204.588C157.782 204.588 160.472 212.453 158.679 213.281C156.885 214.109 125.047 215.765 123.254 209.97C123.254 209.97 122.357 207.072 129.532 207.072C136.706 207.072 144.329 200.863 144.329 200.863L157.782 204.588Z" fill="#2F2E41"/>
<path d="M170.28 55.2037C170.28 55.2037 181.939 44.4413 185.078 45.2692C188.217 46.0971 188.217 50.2364 188.217 50.2364C188.217 50.2364 198.082 51.4782 197.185 81.2817C196.288 111.085 205.257 114.397 202.118 116.052C198.979 117.708 163.105 125.159 161.76 117.708C160.415 110.257 160.863 81.6956 164.451 72.589C168.038 63.4824 172.522 57.6873 170.28 55.2037Z" fill="#575A89"/>
<path d="M186.032 59.2965C186.032 59.2965 199.485 65.0916 191.862 76.2679C184.239 87.4442 178.409 99.4484 170.338 99.0344C162.266 98.6205 149.71 91.5836 146.123 91.5836C142.536 91.5836 147.468 79.5794 150.159 79.1654C152.849 78.7515 165.405 85.7884 165.405 85.7884C165.405 85.7884 169.889 57.6407 186.032 59.2965Z" fill="#575A89"/>
<path d="M177.064 39.3749C176.069 39.3202 175.098 39.6304 174.11 39.7515C170.577 40.1845 166.901 37.8175 166.12 34.6068C166.058 34.1792 165.92 33.764 165.712 33.3777C165.168 32.5581 163.929 32.4018 162.908 32.5903C161.887 32.7787 160.919 33.2198 159.88 33.2702C158.274 33.348 156.733 32.4356 155.877 31.1791C155.022 29.9227 154.779 28.3767 154.895 26.8965L155.664 27.6421C155.977 27.0314 156.098 26.3518 156.013 25.6809C156.421 25.5806 156.85 25.5787 157.259 25.6752C157.667 25.7718 158.043 25.9637 158.348 26.2325C159.027 26.2991 158.515 25.0705 159.019 24.6459C159.23 24.4681 159.554 24.5016 159.839 24.5041C161.283 24.517 162.451 23.4976 163.589 22.677C165.56 21.2584 167.865 20.2878 170.318 19.8436C171.948 19.5501 173.682 19.5029 175.228 20.0633C176.498 20.5235 177.56 21.3617 178.544 22.2345C180.964 24.3831 183.108 26.9075 184.115 29.8647C184.933 32.2869 184.957 34.8786 184.181 37.3129C183.776 38.5771 182.553 42.9067 180.762 43.0075C178.513 43.1343 179.864 39.5292 177.064 39.3749Z" fill="#2F2E41"/>
</g>
<defs>
<clipPath id="clip0_6_2">
<rect width="367" height="219" fill="white"/>
</clipPath>
</defs>
</svg>
